<?xml version="1.0" encoding="UTF-8" standalone="no"?>
<svg
   xmlns:dc="http://purl.org/dc/elements/1.1/"
   xmlns:cc="http://creativecommons.org/ns#"
   xmlns:rdf="http://www.w3.org/1999/02/22-rdf-syntax-ns#"
   xmlns:svg="http://www.w3.org/2000/svg"
   xmlns="http://www.w3.org/2000/svg"
   xmlns:sodipodi="http://sodipodi.sourceforge.net/DTD/sodipodi-0.dtd"
   xmlns:inkscape="http://www.inkscape.org/namespaces/inkscape"
   width="57.191254mm"
   height="60.186562mm"
   viewBox="0 0 57.191254 60.186562"
   version="1.1"
   id="svg5"
   sodipodi:docname="social_icon_v2.svg"
   inkscape:version="1.0.1 (3bc2e813f5, 2020-09-07)">
  <metadata
     id="metadata13">
    <rdf:RDF>
      <cc:Work
         rdf:about="">
        <dc:format>image/svg+xml</dc:format>
        <dc:type
           rdf:resource="http://purl.org/dc/dcmitype/StillImage" />
        <dc:title></dc:title>
      </cc:Work>
    </rdf:RDF>
  </metadata>
  <sodipodi:namedview
     id="namedview7"
     pagecolor="#ffffff"
     bordercolor="#000000"
     borderopacity="0.25"
     inkscape:showpageshadow="2"
     inkscape:pageopacity="0.0"
     inkscape:pagecheckerboard="0"
     inkscape:deskcolor="#d1d1d1"
     inkscape:document-units="mm"
     showgrid="false"
     inkscape:document-rotation="0"
     inkscape:zoom="2.8764408"
     inkscape:cx="32.997027"
     inkscape:cy="115.32008"
     inkscape:window-width="1920"
     inkscape:window-height="1007"
     inkscape:window-x="0"
     inkscape:window-y="0"
     inkscape:window-maximized="1"
     inkscape:current-layer="g20" />
  <defs
     id="defs2" />
  <g
     inkscape:label="Layer 1"
     inkscape:groupmode="layer"
     id="layer1"
     transform="translate(-76.404375,-119.90438)"
     style="opacity:1">
    <g
       id="g637">
      <g
         id="g20"
         transform="rotate(35.984903,105,148.5)">
        <path
           id="path292"
           style="opacity:1;fill:#083a42;stroke-width:0.264583"
           d="M 133.59563,148.5 A 28.595631,28.595631 0 0 1 105,177.09563 28.595631,28.595631 0 0 1 76.404371,148.5 28.595631,28.595631 0 0 1 105,119.90437 28.595631,28.595631 0 0 1 133.59563,148.5 Z" />
        <g
           id="g107">
          <path
             id="path59"
             style="opacity:1;fill:#fed1aa;stroke-width:0.264583"
             d="m 98.133939,126.99974 a 17.248262,16.054168 54.015098 0 0 -0.0046,7.5e-4 17.248262,16.054168 54.015098 0 0 -0.17004,0.027 17.248262,16.054168 54.015098 0 0 -7.39e-4,-1.1e-4 17.248262,16.054168 54.015098 0 0 -0.169853,0.0282 17.248262,16.054168 54.015098 0 0 -0.169471,0.0305 17.248262,16.054168 54.015098 0 0 -0.168676,0.0324 17.248262,16.054168 54.015098 0 0 -7.39e-4,-1.2e-4 17.248262,16.054168 54.015098 0 0 -0.1686,0.0343 17.248262,16.054168 54.015098 0 0 -0.168109,0.0358 17.248262,16.054168 54.015098 0 0 -0.167314,0.0378 17.248262,16.054168 54.015098 0 0 -7.39e-4,-1.1e-4 17.248262,16.054168 54.015098 0 0 -0.166935,0.0401 17.248262,16.054168 54.015098 0 0 -3.1e-4,-4.3e-4 17.248262,16.054168 54.015098 0 0 -0.166138,0.0421 17.248262,16.054168 54.015098 0 0 -0.166253,0.0428 17.248262,16.054168 54.015098 0 0 -0.165153,0.0452 17.248262,16.054168 54.015098 0 0 -7.39e-4,-1.2e-4 17.248262,16.054168 54.015098 0 0 -0.164355,0.0472 17.248262,16.054168 54.015098 0 0 -0.164282,0.049 17.248262,16.054168 54.015098 0 0 -3.11e-4,-4.2e-4 17.248262,16.054168 54.015098 0 0 -0.163484,0.051 17.248262,16.054168 54.015098 0 0 -3.11e-4,-4.2e-4 17.248262,16.054168 54.015098 0 0 -0.16269,0.053 17.248262,16.054168 54.015098 0 0 -0.162498,0.0541 17.248262,16.054168 54.015098 0 0 -3.11e-4,-4.2e-4 17.248262,16.054168 54.015098 0 0 -0.161703,0.0561 17.248262,16.054168 54.015098 0 0 -0.160488,0.0578 17.248262,16.054168 54.015098 0 0 -0.159693,0.0598 17.248262,16.054168 54.015098 0 0 -7.39e-4,-1.2e-4 17.248262,16.054168 54.015098 0 0 -0.1592,0.0613 17.248262,16.054168 54.015098 0 0 -0.1581,0.0637 17.248262,16.054168 54.015098 0 0 -7.39e-4,-1.2e-4 17.248262,16.054168 54.015098 0 0 -0.157909,0.0649 17.248262,16.054168 54.015098 0 0 -0.157115,0.0668 17.248262,16.054168 54.015098 0 0 -0.156203,0.0681 17.248262,16.054168 54.015098 0 0 -0.155103,0.0705 17.248262,16.054168 54.015098 0 0 -4.29e-4,3.1e-4 17.248262,16.054168 54.015098 0 0 -0.154913,0.0716 17.248262,16.054168 54.015098 0 0 -0.153395,0.0737 17.248262,16.054168 54.015098 0 0 -0.152903,0.0753 17.248262,16.054168 54.015098 0 0 -0.151687,0.0769 17.248262,16.054168 54.015098 0 0 -4.29e-4,3.1e-4 17.248262,16.054168 54.015098 0 0 -0.151195,0.0785 17.248262,16.054168 54.015098 0 0 -0.149678,0.0806 17.248262,16.054168 54.015098 0 0 -0.149184,0.0821 17.248262,16.054168 54.015098 0 0 -0.14797,0.0838 17.248262,16.054168 54.015098 0 0 -4.29e-4,3.1e-4 17.248262,16.054168 54.015098 0 0 -0.147059,0.0851 17.248262,16.054168 54.015098 0 0 -4.28e-4,3.2e-4 17.248262,16.054168 54.015098 0 0 -0.146261,0.087 17.248262,16.054168 54.015098 0 0 -0.145049,0.0887 17.248262,16.054168 54.015098 0 0 -0.143833,0.0904 17.248262,16.054168 54.015098 0 0 -0.14262,0.0921 17.248262,16.054168 54.015098 0 0 -4.29e-4,3.1e-4 17.248262,16.054168 54.015098 0 0 -0.142127,0.0936 17.248262,16.054168 54.015098 0 0 -0.140911,0.0953 17.248262,16.054168 54.015098 0 0 -0.14,0.0966 17.248262,16.054168 54.015098 0 0 -0.138489,0.0986 17.248262,16.054168 54.015098 0 0 -0.106212,0.0771 17.248262,16.054168 54.015098 0 0 -0.136655,0.10116 17.248262,16.054168 54.015098 0 0 -0.135445,0.10282 17.248262,16.054168 54.015098 0 0 -4.28e-4,3.2e-4 17.248262,16.054168 54.015098 0 0 -0.134534,0.10407 17.248262,16.054168 54.015098 0 0 -0.132599,0.10587 17.248262,16.054168 54.015098 0 0 -0.131687,0.10712 17.248262,16.054168 54.015098 0 0 -4.28e-4,3.1e-4 17.248262,16.054168 54.015098 0 0 -0.130472,0.10879 17.248262,16.054168 54.015098 0 0 -4.29e-4,3.1e-4 17.248262,16.054168 54.015098 0 0 -0.129561,0.11005 17.248262,16.054168 54.015098 0 0 -0.128349,0.11172 17.248262,16.054168 54.015098 0 0 -0.126716,0.11308 17.248262,16.054168 54.015098 0 0 -4.28e-4,3.2e-4 17.248262,16.054168 54.015098 0 0 -0.1255,0.11476 17.248262,16.054168 54.015098 0 0 -0.124285,0.11643 17.248262,16.054168 54.015098 0 0 -0.122957,0.11738 17.248262,16.054168 54.015098 0 0 -4.29e-4,3.2e-4 17.248262,16.054168 54.015098 0 0 -0.121742,0.11905 17.248262,16.054168 54.015098 0 0 -0.12011,0.12043 17.248262,16.054168 54.015098 0 0 -4.28e-4,3.1e-4 17.248262,16.054168 54.015098 0 0 -0.119199,0.12168 17.248262,16.054168 54.015098 0 0 -0.117566,0.12305 17.248262,16.054168 54.015098 0 0 -4.28e-4,3.1e-4 17.248262,16.054168 54.015098 0 0 -0.116352,0.12472 17.248262,16.054168 54.015098 0 0 -0.115023,0.12567 17.248262,16.054168 54.015098 0 0 -0.11339,0.12704 17.248262,16.054168 54.015098 0 0 -4.28e-4,3.1e-4 17.248262,16.054168 54.015098 0 0 -0.111758,0.12842 17.248262,16.054168 54.015098 0 0 -0.110846,0.12966 17.248262,16.054168 54.015098 0 0 -4.29e-4,3.1e-4 17.248262,16.054168 54.015098 0 0 -0.109213,0.13103 17.248262,16.054168 54.015098 0 0 -0.107581,0.13241 17.248262,16.054168 54.015098 0 0 -4.29e-4,3.1e-4 17.248262,16.054168 54.015098 0 0 -0.105948,0.13377 17.248262,16.054168 54.015098 0 0 -0.104619,0.13472 17.248262,16.054168 54.015098 0 0 -4.28e-4,3.1e-4 17.248262,16.054168 54.015098 0 0 -0.103709,0.13598 17.248262,16.054168 54.015098 0 0 -0.102076,0.13735 17.248262,16.054168 54.015098 0 0 -0.100443,0.13871 17.248262,16.054168 54.015098 0 0 -0.09911,0.13967 17.248262,16.054168 54.015098 0 0 -0.09706,0.14073 17.248262,16.054168 54.015098 0 0 -4.28e-4,3.1e-4 17.248262,16.054168 54.015098 0 0 -0.09543,0.1421 17.248262,16.054168 54.015098 0 0 -4.28e-4,3.1e-4 17.248262,16.054168 54.015098 0 0 -0.0941,0.14305 17.248262,16.054168 54.015098 0 0 -4.28e-4,3.1e-4 17.248262,16.054168 54.015098 0 0 -0.09247,0.14442 17.248262,16.054168 54.015098 0 0 -0.09114,0.14537 17.248262,16.054168 54.015098 0 0 -0.08981,0.14632 17.248262,16.054168 54.015098 0 0 -0.08776,0.14739 17.248262,16.054168 54.015098 0 0 -4.28e-4,3.1e-4 17.248262,16.054168 54.015098 0 0 -0.08613,0.14876 17.248262,16.054168 54.015098 0 0 -4.28e-4,3.1e-4 17.248262,16.054168 54.015098 0 0 -0.0848,0.14971 17.248262,16.054168 54.015098 0 0 -0.08305,0.15035 17.248262,16.054168 54.015098 0 0 -0.08142,0.15172 17.248262,16.054168 54.015098 0 0 -4.28e-4,3.1e-4 17.248262,16.054168 54.015098 0 0 -0.08009,0.15268 17.248262,16.054168 54.015098 0 0 -0.07804,0.15374 17.248262,16.054168 54.015098 0 0 -0.07671,0.15469 17.248262,16.054168 54.015098 0 0 -0.02276,0.0478 8.0714936,8.0714936 0 0 0 3.389283,0.74676 8.0714936,8.0714936 0 0 0 8.071614,-8.07207 8.0714936,8.0714936 0 0 0 -0.07053,-1.06192 z" />
          <path
             id="path69"
             style="opacity:1;fill:#fed1aa;stroke-width:0.264583"
             d="m 90.200957,128.0552 a 17.248262,16.054168 54.015098 0 0 -0.136655,0.10116 17.248262,16.054168 54.015098 0 0 -0.135865,0.10312 17.248262,16.054168 54.015098 0 0 -0.134533,0.10408 17.248262,16.054168 54.015098 0 0 -0.1326,0.10586 17.248262,16.054168 54.015098 0 0 -0.132106,0.10743 17.248262,16.054168 54.015098 0 0 -0.130892,0.1091 17.248262,16.054168 54.015098 0 0 -0.129561,0.11004 17.248262,16.054168 54.015098 0 0 -0.12835,0.11172 17.248262,16.054168 54.015098 0 0 -0.127133,0.11339 17.248262,16.054168 54.015098 0 0 -0.125501,0.11476 17.248262,16.054168 54.015098 0 0 -0.124286,0.11643 17.248262,16.054168 54.015098 0 0 -0.123376,0.11769 17.248262,16.054168 54.015098 0 0 -0.121742,0.11906 17.248262,16.054168 54.015098 0 0 -0.120529,0.12073 17.248262,16.054168 54.015098 0 0 -0.119199,0.12168 17.248262,16.054168 54.015098 0 0 -0.117984,0.12335 17.248262,16.054168 54.015098 0 0 -0.116352,0.12472 17.248262,16.054168 54.015098 0 0 -0.115023,0.12568 17.248262,16.054168 54.015098 0 0 -0.113808,0.12734 17.248262,16.054168 54.015098 0 0 -0.111757,0.12841 17.248262,16.054168 54.015098 0 0 -0.111265,0.12997 17.248262,16.054168 54.015098 0 0 -0.109214,0.13103 17.248262,16.054168 54.015098 0 0 -0.107999,0.13271 17.248262,16.054168 54.015098 0 0 -0.105949,0.13377 17.248262,16.054168 54.015098 0 0 -0.105037,0.13503 17.248262,16.054168 54.015098 0 0 -0.103709,0.13598 17.248262,16.054168 54.015098 0 0 -0.102076,0.13734 17.248262,16.054168 54.015098 0 0 -0.100443,0.13872 17.248262,16.054168 54.015098 0 0 -0.09911,0.13966 17.248262,16.054168 54.015098 0 0 -0.09748,0.14104 17.248262,16.054168 54.015098 0 0 -0.09585,0.1424 17.248262,16.054168 54.015098 0 0 -0.09452,0.14336 17.248262,16.054168 54.015098 0 0 -0.09247,0.14441 17.248262,16.054168 54.015098 0 0 -0.09114,0.14538 17.248262,16.054168 54.015098 0 0 -0.08981,0.14632 17.248262,16.054168 54.015098 0 0 -0.08818,0.14769 17.248262,16.054168 54.015098 0 0 -0.08655,0.14906 17.248262,16.054168 54.015098 0 0 -0.0848,0.1497 17.248262,16.054168 54.015098 0 0 -0.08305,0.15036 17.248262,16.054168 54.015098 0 0 -0.08184,0.15202 17.248262,16.054168 54.015098 0 0 -0.08009,0.15268 17.248262,16.054168 54.015098 0 0 -0.07804,0.15374 17.248262,16.054168 54.015098 0 0 -0.07671,0.15469 17.248262,16.054168 54.015098 0 0 -0.07466,0.15575 17.248262,16.054168 54.015098 0 0 -0.07363,0.15629 17.248262,16.054168 54.015098 0 0 -0.07128,0.15777 17.248262,16.054168 54.015098 0 0 -0.02013,0.0453 8.0714936,8.0714936 0 0 0 0.919257,0.49992 17.248262,16.054168 54.015098 0 1 0.02276,-0.0478 17.248262,16.054168 54.015098 0 1 0.07671,-0.15469 17.248262,16.054168 54.015098 0 1 0.07804,-0.15374 17.248262,16.054168 54.015098 0 1 0.08009,-0.15267 17.248262,16.054168 54.015098 0 0 4.28e-4,-3.1e-4 17.248262,16.054168 54.015098 0 1 0.08142,-0.15173 17.248262,16.054168 54.015098 0 1 0.08305,-0.15035 17.248262,16.054168 54.015098 0 1 0.0848,-0.14971 17.248262,16.054168 54.015098 0 0 4.28e-4,-3.1e-4 17.248262,16.054168 54.015098 0 1 0.08613,-0.14875 17.248262,16.054168 54.015098 0 0 4.28e-4,-3.1e-4 17.248262,16.054168 54.015098 0 1 0.08776,-0.14739 17.248262,16.054168 54.015098 0 1 0.08981,-0.14632 17.248262,16.054168 54.015098 0 1 0.09114,-0.14537 17.248262,16.054168 54.015098 0 1 0.09247,-0.14442 17.248262,16.054168 54.015098 0 0 4.28e-4,-3.1e-4 17.248262,16.054168 54.015098 0 1 0.0941,-0.14305 17.248262,16.054168 54.015098 0 0 4.28e-4,-3.2e-4 17.248262,16.054168 54.015098 0 1 0.09543,-0.1421 17.248262,16.054168 54.015098 0 0 4.28e-4,-3.1e-4 17.248262,16.054168 54.015098 0 1 0.09706,-0.14073 17.248262,16.054168 54.015098 0 1 0.09911,-0.13966 17.248262,16.054168 54.015098 0 1 0.100443,-0.13872 17.248262,16.054168 54.015098 0 1 0.102075,-0.13734 17.248262,16.054168 54.015098 0 1 0.103709,-0.13598 17.248262,16.054168 54.015098 0 0 4.28e-4,-3.1e-4 17.248262,16.054168 54.015098 0 1 0.10462,-0.13473 17.248262,16.054168 54.015098 0 1 0.105948,-0.13377 17.248262,16.054168 54.015098 0 0 4.28e-4,-3.1e-4 17.248262,16.054168 54.015098 0 1 0.107581,-0.1324 17.248262,16.054168 54.015098 0 1 0.109214,-0.13103 17.248262,16.054168 54.015098 0 0 4.28e-4,-3.1e-4 17.248262,16.054168 54.015098 0 1 0.110847,-0.12967 17.248262,16.054168 54.015098 0 1 0.111757,-0.12841 17.248262,16.054168 54.015098 0 0 4.28e-4,-3.1e-4 17.248262,16.054168 54.015098 0 1 0.11339,-0.12704 17.248262,16.054168 54.015098 0 1 0.115023,-0.12568 17.248262,16.054168 54.015098 0 1 0.116352,-0.12472 17.248262,16.054168 54.015098 0 0 4.28e-4,-3.1e-4 17.248262,16.054168 54.015098 0 1 0.117567,-0.12305 17.248262,16.054168 54.015098 0 1 0.119199,-0.12168 17.248262,16.054168 54.015098 0 0 4.28e-4,-3.1e-4 17.248262,16.054168 54.015098 0 1 0.12011,-0.12042 17.248262,16.054168 54.015098 0 1 0.121742,-0.11906 17.248262,16.054168 54.015098 0 0 4.28e-4,-3.1e-4 17.248262,16.054168 54.015098 0 1 0.122957,-0.11739 17.248262,16.054168 54.015098 0 1 0.124286,-0.11643 17.248262,16.054168 54.015098 0 1 0.125499,-0.11476 17.248262,16.054168 54.015098 0 0 4.29e-4,-3.1e-4 17.248262,16.054168 54.015098 0 1 0.126715,-0.11309 17.248262,16.054168 54.015098 0 1 0.128349,-0.11172 17.248262,16.054168 54.015098 0 1 0.129562,-0.11004 17.248262,16.054168 54.015098 0 0 4.28e-4,-3.1e-4 17.248262,16.054168 54.015098 0 1 0.130472,-0.1088 17.248262,16.054168 54.015098 0 0 4.28e-4,-3.1e-4 17.248262,16.054168 54.015098 0 1 0.131687,-0.10712 17.248262,16.054168 54.015098 0 1 0.132599,-0.10586 17.248262,16.054168 54.015098 0 1 0.134534,-0.10408 17.248262,16.054168 54.015098 0 0 4.28e-4,-3.1e-4 17.248262,16.054168 54.015098 0 1 0.135445,-0.10282 17.248262,16.054168 54.015098 0 1 0.136655,-0.10116 17.248262,16.054168 54.015098 0 1 0.106212,-0.0771 17.248262,16.054168 54.015098 0 1 0.138489,-0.0986 17.248262,16.054168 54.015098 0 1 0.14,-0.0965 17.248262,16.054168 54.015098 0 1 0.140912,-0.0953 17.248262,16.054168 54.015098 0 1 0.142127,-0.0936 17.248262,16.054168 54.015098 0 0 4.28e-4,-3.1e-4 17.248262,16.054168 54.015098 0 1 0.142621,-0.0921 17.248262,16.054168 54.015098 0 1 0.143832,-0.0904 17.248262,16.054168 54.015098 0 1 0.145049,-0.0887 17.248262,16.054168 54.015098 0 1 0.146261,-0.087 17.248262,16.054168 54.015098 0 0 4.28e-4,-3.1e-4 17.248262,16.054168 54.015098 0 1 0.14706,-0.0851 17.248262,16.054168 54.015098 0 0 4.28e-4,-3.1e-4 17.248262,16.054168 54.015098 0 1 0.14797,-0.0838 17.248262,16.054168 54.015098 0 1 0.149185,-0.0821 17.248262,16.054168 54.015098 0 1 0.149677,-0.0806 17.248262,16.054168 54.015098 0 1 0.151196,-0.0785 17.248262,16.054168 54.015098 0 0 4.28e-4,-3.1e-4 17.248262,16.054168 54.015098 0 1 0.151687,-0.0769 17.248262,16.054168 54.015098 0 1 0.152903,-0.0753 17.248262,16.054168 54.015098 0 1 0.153396,-0.0737 17.248262,16.054168 54.015098 0 1 0.154913,-0.0716 17.248262,16.054168 54.015098 0 0 4.28e-4,-3.1e-4 17.248262,16.054168 54.015098 0 1 0.155103,-0.0705 17.248262,16.054168 54.015098 0 1 0.156203,-0.0681 17.248262,16.054168 54.015098 0 1 0.157115,-0.0668 17.248262,16.054168 54.015098 0 1 0.157909,-0.0648 17.248262,16.054168 54.015098 0 0 7.4e-4,1.2e-4 17.248262,16.054168 54.015098 0 1 0.158099,-0.0637 17.248262,16.054168 54.015098 0 1 0.1592,-0.0613 17.248262,16.054168 54.015098 0 0 7.39e-4,1.1e-4 17.248262,16.054168 54.015098 0 1 0.159693,-0.0598 17.248262,16.054168 54.015098 0 1 0.160489,-0.0578 17.248262,16.054168 54.015098 0 1 0.161702,-0.0561 17.248262,16.054168 54.015098 0 0 3.11e-4,4.3e-4 17.248262,16.054168 54.015098 0 1 0.162498,-0.0541 17.248262,16.054168 54.015098 0 1 0.16269,-0.053 17.248262,16.054168 54.015098 0 0 3.11e-4,4.3e-4 17.248262,16.054168 54.015098 0 1 0.163485,-0.051 17.248262,16.054168 54.015098 0 0 3.1e-4,4.3e-4 17.248262,16.054168 54.015098 0 1 0.164282,-0.049 17.248262,16.054168 54.015098 0 1 0.164356,-0.0472 17.248262,16.054168 54.015098 0 0 7.39e-4,1.2e-4 17.248262,16.054168 54.015098 0 1 0.165152,-0.0452 17.248262,16.054168 54.015098 0 1 0.166254,-0.0428 17.248262,16.054168 54.015098 0 1 0.166137,-0.0421 17.248262,16.054168 54.015098 0 0 3.11e-4,4.2e-4 17.248262,16.054168 54.015098 0 1 0.166934,-0.0401 17.248262,16.054168 54.015098 0 0 7.39e-4,1.2e-4 17.248262,16.054168 54.015098 0 1 0.167314,-0.0378 17.248262,16.054168 54.015098 0 1 0.168109,-0.0359 17.248262,16.054168 54.015098 0 1 0.1686,-0.0343 17.248262,16.054168 54.015098 0 0 7.39e-4,1.1e-4 17.248262,16.054168 54.015098 0 1 0.168676,-0.0324 17.248262,16.054168 54.015098 0 1 0.169471,-0.0305 17.248262,16.054168 54.015098 0 1 0.169853,-0.0282 17.248262,16.054168 54.015098 0 0 7.39e-4,1.2e-4 17.248262,16.054168 54.015098 0 1 0.17004,-0.027 17.248262,16.054168 54.015098 0 1 0.0046,-7.6e-4 8.0714936,8.0714936 0 0 0 -0.206374,-1.03353 17.248262,16.054168 54.015098 0 0 -0.158863,0.0196 17.248262,16.054168 54.015098 0 0 -0.171215,0.0228 17.248262,16.054168 54.015098 0 0 -0.170418,0.0247 17.248262,16.054168 54.015098 0 0 -0.170761,0.0269 17.248262,16.054168 54.015098 0 0 -0.169853,0.0282 17.248262,16.054168 54.015098 0 0 -0.169471,0.0305 17.248262,16.054168 54.015098 0 0 -0.169399,0.0323 17.248262,16.054168 54.015098 0 0 -0.1686,0.0343 17.248262,16.054168 54.015098 0 0 -0.168109,0.0359 17.248262,16.054168 54.015098 0 0 -0.168035,0.0377 17.248262,16.054168 54.015098 0 0 -0.167238,0.0397 17.248262,16.054168 54.015098 0 0 -0.166441,0.0417 17.248262,16.054168 54.015098 0 0 -0.16595,0.0432 17.248262,16.054168 54.015098 0 0 -0.165873,0.0451 17.248262,16.054168 54.015098 0 0 -0.164659,0.0468 17.248262,16.054168 54.015098 0 0 -0.164282,0.049 17.248262,16.054168 54.015098 0 0 -0.163788,0.0506 17.248262,16.054168 54.015098 0 0 -0.162994,0.0526 17.248262,16.054168 54.015098 0 0 -0.162498,0.0541 17.248262,16.054168 54.015098 0 0 -0.161702,0.0561 17.248262,16.054168 54.015098 0 0 -0.160489,0.0578 17.248262,16.054168 54.015098 0 0 -0.160414,0.0597 17.248262,16.054168 54.015098 0 0 -0.1592,0.0613 17.248262,16.054168 54.015098 0 0 -0.158821,0.0636 17.248262,16.054168 54.015098 0 0 -0.157909,0.0648 17.248262,16.054168 54.015098 0 0 -0.157115,0.0668 17.248262,16.054168 54.015098 0 0 -0.156203,0.0681 17.248262,16.054168 54.015098 0 0 -0.155824,0.0704 17.248262,16.054168 54.015098 0 0 -0.15461,0.072 17.248262,16.054168 54.015098 0 0 -0.153395,0.0737 17.248262,16.054168 54.015098 0 0 -0.152903,0.0753 17.248262,16.054168 54.015098 0 0 -0.152107,0.0772 17.248262,16.054168 54.015098 0 0 -0.151195,0.0785 17.248262,16.054168 54.015098 0 0 -0.149678,0.0806 17.248262,16.054168 54.015098 0 0 -0.149185,0.0821 17.248262,16.054168 54.015098 0 0 -0.148387,0.0841 17.248262,16.054168 54.015098 0 0 -0.147479,0.0854 17.248262,16.054168 54.015098 0 0 -0.146261,0.087 17.248262,16.054168 54.015098 0 0 -0.145049,0.0887 17.248262,16.054168 54.015098 0 0 -0.143833,0.0904 17.248262,16.054168 54.015098 0 0 -0.143038,0.0924 17.248262,16.054168 54.015098 0 0 -0.142127,0.0936 17.248262,16.054168 54.015098 0 0 -0.140912,0.0953 17.248262,16.054168 54.015098 0 0 -0.139999,0.0965 17.248262,16.054168 54.015098 0 0 -0.13849,0.0986 17.248262,16.054168 54.015098 0 0 -0.106212,0.0771 z" />
          <path
             id="path64"
             style="opacity:1;fill:#fed1aa;stroke-width:0.264583"
             d="m 88.745059,126.20869 a 17.248262,16.054168 54.015098 0 0 -5.028442,6.3994 8.0714936,8.0714936 0 0 0 1.055397,0.79381 17.248262,16.054168 54.015098 0 1 0.02013,-0.0453 17.248262,16.054168 54.015098 0 1 0.07128,-0.15777 17.248262,16.054168 54.015098 0 1 0.07363,-0.15629 17.248262,16.054168 54.015098 0 1 0.07466,-0.15575 17.248262,16.054168 54.015098 0 1 0.07671,-0.15469 17.248262,16.054168 54.015098 0 1 0.07804,-0.15374 17.248262,16.054168 54.015098 0 1 0.08009,-0.15268 17.248262,16.054168 54.015098 0 1 0.08184,-0.15202 17.248262,16.054168 54.015098 0 1 0.08305,-0.15036 17.248262,16.054168 54.015098 0 1 0.0848,-0.1497 17.248262,16.054168 54.015098 0 1 0.08655,-0.14906 17.248262,16.054168 54.015098 0 1 0.08818,-0.14769 17.248262,16.054168 54.015098 0 1 0.08981,-0.14632 17.248262,16.054168 54.015098 0 1 0.09114,-0.14537 17.248262,16.054168 54.015098 0 1 0.09247,-0.14442 17.248262,16.054168 54.015098 0 1 0.09452,-0.14336 17.248262,16.054168 54.015098 0 1 0.09585,-0.1424 17.248262,16.054168 54.015098 0 1 0.09748,-0.14104 17.248262,16.054168 54.015098 0 1 0.09911,-0.13966 17.248262,16.054168 54.015098 0 1 0.100443,-0.13872 17.248262,16.054168 54.015098 0 1 0.102076,-0.13734 17.248262,16.054168 54.015098 0 1 0.103708,-0.13598 17.248262,16.054168 54.015098 0 1 0.105038,-0.13503 17.248262,16.054168 54.015098 0 1 0.105948,-0.13377 17.248262,16.054168 54.015098 0 1 0.107999,-0.13271 17.248262,16.054168 54.015098 0 1 0.109214,-0.13103 17.248262,16.054168 54.015098 0 1 0.111265,-0.12997 17.248262,16.054168 54.015098 0 1 0.111757,-0.12841 17.248262,16.054168 54.015098 0 1 0.113808,-0.12734 17.248262,16.054168 54.015098 0 1 0.115023,-0.12568 17.248262,16.054168 54.015098 0 1 0.116352,-0.12472 17.248262,16.054168 54.015098 0 1 0.117985,-0.12335 17.248262,16.054168 54.015098 0 1 0.119199,-0.12168 17.248262,16.054168 54.015098 0 1 0.120528,-0.12073 17.248262,16.054168 54.015098 0 1 0.121742,-0.11906 17.248262,16.054168 54.015098 0 1 0.123376,-0.11768 17.248262,16.054168 54.015098 0 1 0.124288,-0.11644 17.248262,16.054168 54.015098 0 1 0.1255,-0.11476 17.248262,16.054168 54.015098 0 1 0.127133,-0.11339 17.248262,16.054168 54.015098 0 1 0.128349,-0.11172 17.248262,16.054168 54.015098 0 1 0.129561,-0.11005 17.248262,16.054168 54.015098 0 1 0.130892,-0.10909 17.248262,16.054168 54.015098 0 1 0.132107,-0.10742 17.248262,16.054168 54.015098 0 1 0.132598,-0.10587 17.248262,16.054168 54.015098 0 1 0.134536,-0.10408 17.248262,16.054168 54.015098 0 1 0.135864,-0.10312 17.248262,16.054168 54.015098 0 1 0.136661,-0.10115 17.248262,16.054168 54.015098 0 1 0.106212,-0.0771 17.248262,16.054168 54.015098 0 1 0.138481,-0.0986 17.248262,16.054168 54.015098 0 1 0.140001,-0.0966 17.248262,16.054168 54.015098 0 1 0.140912,-0.0953 17.248262,16.054168 54.015098 0 1 0.142127,-0.0936 17.248262,16.054168 54.015098 0 1 0.143037,-0.0924 17.248262,16.054168 54.015098 0 1 0.143833,-0.0904 17.248262,16.054168 54.015098 0 1 0.145049,-0.0887 17.248262,16.054168 54.015098 0 1 0.146262,-0.087 17.248262,16.054168 54.015098 0 1 0.147478,-0.0854 17.248262,16.054168 54.015098 0 1 0.148387,-0.0841 17.248262,16.054168 54.015098 0 1 0.149184,-0.0821 17.248262,16.054168 54.015098 0 1 0.149678,-0.0806 17.248262,16.054168 54.015098 0 1 0.151195,-0.0785 17.248262,16.054168 54.015098 0 1 0.152107,-0.0772 17.248262,16.054168 54.015098 0 1 0.152901,-0.0753 17.248262,16.054168 54.015098 0 1 0.153397,-0.0737 17.248262,16.054168 54.015098 0 1 0.15461,-0.072 17.248262,16.054168 54.015098 0 1 0.155824,-0.0704 17.248262,16.054168 54.015098 0 1 0.156204,-0.0681 17.248262,16.054168 54.015098 0 1 0.157112,-0.0668 17.248262,16.054168 54.015098 0 1 0.157912,-0.0649 17.248262,16.054168 54.015098 0 1 0.15882,-0.0636 17.248262,16.054168 54.015098 0 1 0.1592,-0.0613 17.248262,16.054168 54.015098 0 1 0.160412,-0.0596 17.248262,16.054168 54.015098 0 1 0.160491,-0.0578 17.248262,16.054168 54.015098 0 1 0.161703,-0.0561 17.248262,16.054168 54.015098 0 1 0.162498,-0.0541 17.248262,16.054168 54.015098 0 1 0.162993,-0.0526 17.248262,16.054168 54.015098 0 1 0.163788,-0.0506 17.248262,16.054168 54.015098 0 1 0.164282,-0.049 17.248262,16.054168 54.015098 0 1 0.164659,-0.0468 17.248262,16.054168 54.015098 0 1 0.165874,-0.0451 17.248262,16.054168 54.015098 0 1 0.165949,-0.0432 17.248262,16.054168 54.015098 0 1 0.166441,-0.0417 17.248262,16.054168 54.015098 0 1 0.167238,-0.0397 17.248262,16.054168 54.015098 0 1 0.168033,-0.0377 17.248262,16.054168 54.015098 0 1 0.168109,-0.0358 17.248262,16.054168 54.015098 0 1 0.168602,-0.0343 17.248262,16.054168 54.015098 0 1 0.169397,-0.0323 17.248262,16.054168 54.015098 0 1 0.169473,-0.0305 17.248262,16.054168 54.015098 0 1 0.169851,-0.0282 17.248262,16.054168 54.015098 0 1 0.170762,-0.0269 17.248262,16.054168 54.015098 0 1 0.170419,-0.0248 17.248262,16.054168 54.015098 0 1 0.171215,-0.0228 17.248262,16.054168 54.015098 0 1 0.158863,-0.0196 8.0714936,8.0714936 0 0 0 -0.399491,-1.13854 17.248262,16.054168 54.015098 0 0 -7.730717,2.86618 z" />
        </g>
        <path
           id="circle564"
           style="opacity:1;fill:#13889b;stroke-width:0.160027"
           d="m 116.61107,147.68573 a 12.202344,12.202344 0 0 1 -12.20234,12.20235 12.202344,12.202344 0 0 1 -12.202341,-12.20235 12.202344,12.202344 0 0 1 12.202341,-12.20234 12.202344,12.202344 0 0 1 12.20234,12.20234 z" />
        <path
           style="fill:#ffd556;stroke-width:0.264583"
           d="m 99.346688,164.78009 12.812462,5.98781 9.70137,4.53451 1.67158,-1.16846 1.14306,-0.79872 -0.92415,-10.66916 -1.22057,-14.08965 -11.59187,8.10184 z"
           id="path620" />
        <g
           id="g56">
          <path
             id="path57"
             style="opacity:1;fill:#ffd556;fill-opacity:1;stroke-width:0.999999"
             d="m 155.73828,135.77148 -47.66016,-0.86132 -49.779292,-0.89844 a 76.251456,76.251456 0 0 0 96.425782,2.55859 76.251456,76.251456 0 0 0 1.01367,-0.79883 z"
             transform="matrix(0.21409338,-0.15546177,0.15546177,0.21409338,65.059238,142.16322)" />
          <g
             id="g94"
             transform="translate(-16.996759,22.167292)">
            <path
               style="opacity:1;fill:#ffd556;stroke-width:0.264583"
               d="m 122.23428,142.4314 a 12.202344,12.202344 0 0 1 -5.6587,-3.10692 17.248262,16.054168 54.015099 0 1 -1.06745,-0.31438 17.248262,16.054168 54.015099 0 1 -5.31247,-2.84295 17.248262,16.054168 54.015099 0 1 -0.25896,-0.20536 17.248262,16.054168 54.015099 0 1 -6.31633,-18.22162 17.248262,16.054168 54.015099 0 1 0.75622,-2.25491 8.0714933,8.0714933 0 0 1 -1.05848,-1.14283 20.174863,20.174863 0 0 0 -1.97006,4.55857 20.174863,20.174863 0 0 0 6.9939,21.59973 20.174863,20.174863 0 0 0 0.30935,0.23518 20.174863,20.174863 0 0 0 6.39894,3.19143 20.174863,20.174863 0 0 0 3.98403,0.74086 z"
               id="path88" />
            <path
               style="opacity:1;fill:#ffd556;stroke-width:0.264583"
               d="m 116.37667,104.85946 a 8.0714933,8.0714933 0 0 1 0.75908,1.36022 17.248262,16.054168 54.015099 0 1 6.52491,0.79066 17.248262,16.054168 54.015099 0 1 12.36815,18.18838 12.202344,12.202344 0 0 1 1.24228,5.3642 12.202344,12.202344 0 0 1 -0.0828,1.4172 l 2.98068,-2.08328 a 20.174863,20.174863 0 0 0 -13.79472,-24.6973 20.174863,20.174863 0 0 0 -9.9976,-0.34008 z"
               id="path77" />
          </g>
          <path
             id="circle566"
             style="fill:#ffd556;stroke-width:0.105853"
             d="m 112.48022,147.68573 a 8.0714941,8.0714941 0 0 1 -8.07149,8.0715 8.0714941,8.0714941 0 0 1 -8.071491,-8.0715 8.0714941,8.0714941 0 0 1 8.071491,-8.07149 8.0714941,8.0714941 0 0 1 8.07149,8.07149 z" />
          <path
             style="fill:#ffd556;stroke-width:0.264583"
             d="m 99.346688,164.78009 12.812462,5.98781 9.70137,4.53451 1.67158,-1.16846 1.14306,-0.79872 -0.92415,-10.66916 -1.22057,-14.08965 -11.59187,8.10184 z"
             id="path22" />
        </g>
        <g
           id="g70">
          <path
             id="path58"
             style="opacity:1;fill:#ffd556;fill-opacity:1;stroke-width:0.999999"
             d="m 155.73828,135.77148 -47.66016,-0.86132 -49.779292,-0.89844 a 76.251456,76.251456 0 0 0 96.425782,2.55859 76.251456,76.251456 0 0 0 1.01367,-0.79883 z"
             transform="matrix(0.21409338,-0.15546177,0.15546177,0.21409338,65.059238,142.16322)" />
          <g
             id="g64"
             transform="translate(-16.996759,22.167292)">
            <path
               style="opacity:1;fill:#ffd556;stroke-width:0.264583"
               d="m 122.23428,142.4314 a 12.202344,12.202344 0 0 1 -5.6587,-3.10692 17.248262,16.054168 54.015099 0 1 -1.06745,-0.31438 17.248262,16.054168 54.015099 0 1 -5.31247,-2.84295 17.248262,16.054168 54.015099 0 1 -0.25896,-0.20536 17.248262,16.054168 54.015099 0 1 -6.31633,-18.22162 17.248262,16.054168 54.015099 0 1 0.75622,-2.25491 8.0714933,8.0714933 0 0 1 -1.05848,-1.14283 20.174863,20.174863 0 0 0 -1.97006,4.55857 20.174863,20.174863 0 0 0 6.9939,21.59973 20.174863,20.174863 0 0 0 0.30935,0.23518 20.174863,20.174863 0 0 0 6.39894,3.19143 20.174863,20.174863 0 0 0 3.98403,0.74086 z"
               id="path60" />
            <path
               style="opacity:1;fill:#ffd556;stroke-width:0.264583"
               d="m 116.37667,104.85946 a 8.0714933,8.0714933 0 0 1 0.75908,1.36022 17.248262,16.054168 54.015099 0 1 6.52491,0.79066 17.248262,16.054168 54.015099 0 1 12.36815,18.18838 12.202344,12.202344 0 0 1 1.24228,5.3642 12.202344,12.202344 0 0 1 -0.0828,1.4172 l 2.98068,-2.08328 a 20.174863,20.174863 0 0 0 -13.79472,-24.6973 20.174863,20.174863 0 0 0 -9.9976,-0.34008 z"
               id="path62" />
          </g>
          <path
             id="path66"
             style="fill:#ffd556;stroke-width:0.105853"
             d="m 112.48022,147.68573 a 8.0714941,8.0714941 0 0 1 -8.07149,8.0715 8.0714941,8.0714941 0 0 1 -8.071491,-8.0715 8.0714941,8.0714941 0 0 1 8.071491,-8.07149 8.0714941,8.0714941 0 0 1 8.07149,8.07149 z" />
          <path
             style="fill:#ffd556;stroke-width:0.264583"
             d="m 99.346688,164.78009 12.812462,5.98781 9.70137,4.53451 1.67158,-1.16846 1.14306,-0.79872 -0.92415,-10.66916 -1.22057,-14.08965 -11.59187,8.10184 z"
             id="path68" />
        </g>
      </g>
    </g>
  </g>
</svg>
